# xmcd
#
# Track frame offsets: 
#        150
#        13937
#        32725
#        46455
#        60267
#        77040
#        90490
#        108322
#        122017
#        152480
#        166455
#        190210
#
# Disc length: 2881 seconds
#
# Revision: 2
# Processed by: cddbd v1.5.2PL0 Copyright (c) Steve Scherf et al.
# Submitted via: ExactAudioCopyFreeDBPlugin 1.0
#
DISCID=8d0b3f0c
DTITLE=細野晴臣 - 紫式部 源氏物語
DYEAR=1987
DGENRE=Soundtrack
TTITLE0=月読
TTITLE1=羅城門
TTITLE2=藤壺
TTITLE3=朝霧
TTITLE4=若紫
TTITLE5=御息所
TTITLE6=浮橋
TTITLE7=結願
TTITLE8=五月雨・護摩・祈祷
TTITLE9=光
TTITLE10=木霊
TTITLE11=舞
EXTD=
EXTT0=
EXTT1=
EXTT2=
EXTT3=
EXTT4=
EXTT5=
EXTT6=
EXTT7=
EXTT8=
EXTT9=
EXTT10=
EXTT11=
PLAYORDER=
